<svg width="320" height="288" viewBox="0 0 320 288" fill="none" xmlns="http://www.w3.org/2000/svg">
<path d="M17.1448 142.416C17.1448 142.416 14.7734 176.726 56.0953 171.007L58.4668 176.726C58.4668 176.726 70.1874 154.181 50.862 150.515C47.0188 149.776 35.1891 150.05 35.1891 150.05L17.1448 142.416Z" fill="#5CC2AD"/>
<path d="M23.3049 206.274C23.3049 206.274 18.5622 209.147 10.0034 221.514L6.67798 214.838L18.0715 202.444L23.3049 206.274Z" fill="black"/>
<path d="M10.0035 221.541C10.0035 221.541 0.517884 211.527 5.72402 202.471C5.72402 202.471 10.4667 194.373 19.0255 195.33C19.0255 195.33 33.7445 179.133 51.7888 189.147C51.7888 189.147 55.5775 210.597 19.4889 208.682C19.5162 208.682 7.63208 208.682 10.0035 221.541Z" fill="#5CC2AD"/>
<path d="M9.62168 221.623C7.6319 212.622 10.2213 205.864 12.7563 201.787C15.5092 197.355 18.6711 195.084 18.8074 195.002L19.2709 195.686C19.2436 195.713 16.0816 197.984 13.4377 202.28C10.9845 206.219 8.50424 212.786 10.4122 221.486L9.62168 221.623Z" fill="#17311D"/>
<path d="M69.615 194.126C69.615 194.126 72.9404 183.155 83.3799 184.113C83.3799 184.113 89.1312 175.659 100.007 183.155C103.823 185.782 107.121 188.873 105.704 200.802C105.704 200.802 102.133 194.838 92.8926 194.619C86.569 194.455 69.615 194.126 69.615 194.126Z" fill="#5CC2AD"/>
<path d="M105.295 200.939C102.269 191.856 96.4362 187.916 92.0478 186.219C87.305 184.359 83.2437 184.66 83.1892 184.687L83.1346 183.867C83.2981 183.839 87.4412 183.538 92.3475 185.453C96.8994 187.232 102.951 191.308 106.085 200.693L105.295 200.939Z" fill="#17311D"/>
<path d="M60.3475 216.78H44.6746C41.3219 216.78 38.4055 218.449 36.4157 220.009C34.753 221.295 33.7444 222.499 33.7444 222.499C33.4173 218.641 35.0528 214.975 37.3151 212.43C38.4054 211.199 39.632 210.241 40.8586 209.612C55.6592 202.198 60.3475 216.78 60.3475 216.78Z" fill="#197A83"/>
<path d="M54.1602 216.835C52.3612 207.451 45.2742 208.271 44.9744 208.326L44.8927 207.779C44.9745 207.779 52.77 206.821 54.678 216.726L54.1602 216.835Z" fill="#020403"/>
<path d="M54.8565 215.391L53.512 215.615L57.8392 241.742L59.1836 241.518L54.8565 215.391Z" fill="#22452A"/>
<path d="M62.4463 242.143L61.1108 241.951C63.1551 227.642 62.7189 219.544 62.0648 213.525C59.8297 193.552 49.7989 189.831 49.6899 189.776L50.126 188.49C50.5621 188.654 61.0562 192.54 63.4004 213.36C64.0818 219.462 64.4906 227.67 62.4463 242.143Z" fill="#5CC2AD"/>
<path d="M62.2828 214.564C60.402 190.46 57.1039 171.089 57.0766 170.898L58.4122 170.652C58.4394 170.843 61.7649 190.269 63.6456 214.455L62.2828 214.564Z" fill="#5CC2AD"/>
<path d="M68.3611 243.374L67.0255 243.101C74.9846 205.481 75.0937 191.418 75.0937 191.281H76.4565C76.4565 191.418 76.3747 205.618 68.3611 243.374Z" fill="#5CC2AD"/>
<path d="M58.276 176.561C58.2487 176.397 55.7956 160.994 45.2198 155.905C42.3305 154.509 33.9081 150.214 33.8263 150.187L34.2079 149.448C34.2896 149.503 42.7121 153.771 45.6013 155.166C56.586 160.446 59.0937 176.288 59.121 176.452L58.276 176.561Z" fill="#17311D"/>
<path d="M36.4157 220.009C34.753 221.295 33.7444 222.499 33.7444 222.499C33.4173 218.641 35.0528 214.975 37.3151 212.43C36.8517 214.263 36.2249 217.3 36.4157 220.009Z" fill="#020403"/>
<path d="M40.1498 239.407H85.7513L79.1005 286.603H46.8007L40.1498 239.407Z" fill="#4F216C"/>
<path d="M293.206 162.362C293.206 162.362 300.484 190.488 265.295 192.184L264.204 197.3C264.204 197.3 250.985 180.419 266.467 174.345C269.547 173.141 279.414 171.5 279.414 171.5L293.206 162.362Z" fill="#5CC2AD"/>
<path d="M300.048 219.681C300.048 219.681 304.709 219.982 315.911 226.001L315.83 219.708L302.501 214.81L300.048 219.681Z" fill="black"/>
<path d="M315.911 226.001C315.911 226.001 319.21 214.81 311.796 210.023C311.796 210.023 305.118 205.782 299.066 209.804C299.066 209.804 281.785 203.319 272.055 217.847C272.055 217.847 277.451 235.44 303.836 220.009C303.836 220.009 312.75 215.412 315.911 226.001Z" fill="#5CC2AD"/>
<path d="M315.503 226.11C311.877 212.184 299.121 210.214 298.985 210.214L299.094 209.393C299.23 209.421 302.501 209.886 306.262 212.157C309.751 214.263 314.303 218.34 316.293 225.891L315.503 226.11Z" fill="#17311D"/>
<path d="M255.455 208.49C255.455 208.49 252.647 199.215 243.816 200.036C243.816 200.036 238.964 192.895 229.779 199.243C226.562 201.459 223.755 204.085 224.954 214.154C224.954 214.154 227.952 209.12 235.775 208.928C241.118 208.737 255.455 208.49 255.455 208.49Z" fill="#5CC2AD"/>
<path d="M225.363 214.263L224.6 214.017C227.244 206.055 232.395 202.608 236.239 201.103C240.409 199.489 243.898 199.735 244.061 199.763L244.007 200.583C243.98 200.583 240.518 200.337 236.511 201.897C231.114 203.949 227.38 208.135 225.363 214.263Z" fill="#17311D"/>
<path d="M267.394 249.065C265.922 239.872 265.676 233.388 266.603 227.341C267.612 220.556 271.646 216.507 274.835 214.291C278.269 211.91 281.431 211.144 281.567 211.09L281.894 212.43C281.785 212.458 269.765 215.494 267.966 227.533C267.094 233.415 267.312 239.79 268.756 248.819L267.394 249.065Z" fill="#5CC2AD"/>
<path d="M262.487 250.187C259.38 231.883 260.17 216.616 261.397 207.068C262.705 196.671 264.75 190.734 264.831 190.488L266.112 190.925C266.031 191.172 257.935 215.276 263.85 249.968L262.487 250.187Z" fill="#5CC2AD"/>
<path d="M256.382 250.105C249.622 218.203 249.54 206.192 249.54 206.083H250.903C250.903 206.192 250.985 218.094 257.717 249.831L256.382 250.105Z" fill="#5CC2AD"/>
<path d="M264.395 197.218L263.578 197.081C263.605 196.972 265.595 185.234 272.572 177.711C274.426 175.713 279.877 171.035 280.095 170.843L280.613 171.473C280.559 171.527 274.971 176.315 273.145 178.285C266.358 185.618 264.395 197.081 264.395 197.218Z" fill="#17311D"/>
<path d="M280.313 246.739H241.799L247.441 286.603H274.698L280.313 246.739Z" fill="#4F216C"/>
<path d="M266.167 283.128L250.658 286.466C249.349 286.739 248.041 285.919 247.741 284.578L222.501 166.739L227.298 139.899L241.935 161.076L242.807 162.362L268.048 280.2C268.32 281.541 267.503 282.827 266.167 283.128Z" fill="#F1884F"/>
<path d="M242.835 162.389L222.528 166.767V166.739L225.254 151.39L227.298 139.899L233.622 149.065L233.949 149.503L242.808 162.362L242.835 162.389Z" fill="#FCBB9D"/>
<path d="M233.949 149.503L225.254 151.39L227.298 139.899L233.949 149.503Z" fill="#373133"/>
<path d="M262.351 253.552L252.184 255.713L232.286 163.155L241.935 161.076L242.807 162.362L262.351 253.552Z" fill="#D87245"/>
<path d="M242.835 162.389L232.586 164.605L229.451 149.913L233.622 149.065L233.949 149.503L242.807 162.362L242.835 162.389Z" fill="#DBA18A"/>
<path d="M233.949 149.503L229.561 150.46L227.298 139.899L233.949 149.503Z" fill="#161415"/>
<path d="M266.167 283.128L250.658 286.466C249.349 286.739 248.041 285.919 247.741 284.578L244.715 270.406L265.022 266.028L268.048 280.2C268.32 281.541 267.503 282.827 266.167 283.128Z" fill="#EE504F"/>
<path d="M262.157 252.493L241.85 256.873L244.845 270.863L265.152 266.483L262.157 252.493Z" fill="#373133"/>
<path d="M266.167 283.128L258.453 284.797L254.91 268.217L265.022 266.028L268.048 280.2C268.32 281.541 267.503 282.827 266.167 283.128Z" fill="#CE4646"/>
<path d="M262.138 252.502L252.038 254.68L255.033 268.67L265.133 266.492L262.138 252.502Z" fill="#161415"/>
<path d="M246.405 208.463C246.405 208.463 241.308 217.382 246.405 224.715H138.358V208.463H246.405Z" fill="#DBDCF1"/>
<path d="M248.15 225.316C248.15 225.727 247.986 226.083 247.714 226.356C247.441 226.63 247.087 226.794 246.678 226.794H85.942C83.0255 226.794 80.6814 224.414 80.6814 221.513V212.348C80.6814 209.42 83.0528 207.067 85.942 207.067H246.678C247.496 207.067 248.15 207.724 248.15 208.545C248.15 209.366 247.496 209.995 246.678 209.995H146.835C144.872 209.995 143.291 211.582 143.291 213.552V220.364C143.291 222.334 144.872 223.921 146.835 223.921H246.678C247.496 223.839 248.15 224.496 248.15 225.316Z" fill="#EE504F"/>
<path d="M248.123 225.043C248.204 225.563 248.041 226.028 247.714 226.356C247.441 226.63 247.087 226.794 246.678 226.794H145.881C142.555 226.794 139.83 224.085 139.83 220.72V213.087C139.83 209.749 142.528 207.013 145.881 207.013H246.596C247.359 207.013 248.041 207.56 248.123 208.326C248.204 209.202 247.523 209.94 246.678 209.94H146.835C144.872 209.94 143.291 211.527 143.291 213.497V220.31C143.291 222.28 144.872 223.867 146.835 223.867H246.623C247.359 223.839 247.986 224.332 248.123 225.043Z" fill="#D34848"/>
<path d="M245.751 258.641C245.751 258.641 240.436 272.184 245.751 284.113H164.525V258.641H245.751Z" fill="#DBDCF1"/>
<path d="M248.641 284.496C248.668 285.098 248.45 285.645 248.068 286.028C247.714 286.384 247.223 286.603 246.678 286.603H75.2846C70.7599 286.603 67.1074 282.936 67.1074 278.395V264.222C67.1074 259.681 70.7599 256.014 75.2846 256.014H246.678C247.714 256.014 248.613 256.808 248.641 257.848C248.668 258.915 247.823 259.817 246.76 259.817H173.956C170.276 259.817 167.305 262.8 167.305 266.493V275.96C167.305 279.653 170.276 282.636 173.956 282.636H246.623C247.659 282.663 248.586 283.456 248.641 284.496Z" fill="#197A83"/>
<path d="M248.641 284.496C248.668 285.098 248.45 285.645 248.068 286.028C247.714 286.384 247.223 286.603 246.678 286.603H172.157C167.114 286.603 163.026 282.499 163.026 277.437V265.153C163.026 260.091 167.114 255.987 172.157 255.987H246.678C247.714 255.987 248.613 256.78 248.641 257.82C248.668 258.887 247.823 259.79 246.76 259.79H173.956C170.276 259.79 167.305 262.772 167.305 266.466V275.932C167.305 279.626 170.276 282.608 173.956 282.608H246.623C247.659 282.663 248.586 283.456 248.641 284.496Z" fill="#156468"/>
<path d="M239.291 264.66H193.99V264.988H239.291V264.66Z" fill="#373133"/>
<path d="M220.021 264.66L223.346 279.9L226.808 274.373V265.809L220.021 264.66Z" fill="#AFAFD5"/>
<path d="M236.811 268.627C236.811 268.655 236.811 268.655 236.811 268.655V279.845L230.215 274.865L223.346 279.845V268.573C223.346 265.809 220.048 264.66 220.048 264.66H234.603C236.784 265.317 236.811 268.299 236.811 268.627Z" fill="#6D68E0"/>
<path d="M236.811 268.627H223.346V268.573C223.346 265.809 220.048 264.66 220.048 264.66H234.603C236.784 265.317 236.811 268.299 236.811 268.627Z" fill="#5A5ABA"/>
<path d="M75.012 228.217C75.012 228.217 80.4089 242.991 75.012 254.127H181.588V228.217H75.012Z" fill="#DBDCF1"/>
<path d="M254.855 236.452V246.22C254.855 251.637 250.494 256.014 245.097 256.014H75.1483C74.3033 256.014 73.6218 255.33 73.6218 254.482V254.4C73.6218 253.552 74.3033 252.868 75.1483 252.868H171.748C175.618 252.868 178.753 249.722 178.753 245.837V236.753C178.753 232.868 175.618 229.722 171.748 229.722H75.1483C74.7122 229.722 74.3306 229.557 74.058 229.256C73.7581 228.956 73.5946 228.518 73.6218 228.053C73.6764 227.232 74.385 226.63 75.2027 226.63H245.097C250.494 226.657 254.855 231.062 254.855 236.452Z" fill="#F1884F"/>
<path d="M183.087 235.522V247.177C183.087 252.047 179.135 256.014 174.283 256.014H75.1483C74.3033 256.014 73.6218 255.33 73.6218 254.482V254.4C73.6218 253.552 74.3033 252.868 75.1483 252.868H171.748C175.618 252.868 178.753 249.722 178.753 245.837V236.753C178.753 232.868 175.618 229.722 171.748 229.722H75.1483C74.7122 229.722 74.3306 229.557 74.058 229.256C73.7581 228.956 73.5946 228.518 73.6218 228.053C73.6764 227.232 74.385 226.63 75.2027 226.63H174.255C179.135 226.657 183.087 230.624 183.087 235.522Z" fill="#D37146"/>
<path d="M129.99 245.508H84.6883V245.837H129.99V245.508Z" fill="#373133"/>
<path d="M103.605 245.426H97.7989V252.813H103.605V245.426Z" fill="#AFAFD5"/>
<path d="M100.198 251.91V275.358L93.8466 269.612L87.7956 275.358V252.813L100.198 251.91Z" fill="#A82329"/>
<path d="M103.605 245.426H91.2845C91.2845 245.426 91.2845 250.953 87.7956 252.813H100.116C100.116 252.813 103.605 251.91 103.605 245.426Z" fill="#EE504F"/>
<path d="M222.664 178.668C222.664 178.668 218.439 190.57 222.664 203.62H115.789V179.133L222.664 178.668Z" fill="#DBDCF1"/>
<path d="M120.75 175.248H222.801C223.973 175.248 224.927 176.206 224.927 177.382C224.927 178.559 223.973 179.516 222.801 179.516H121.731C118.814 179.516 116.443 181.897 116.443 184.824V197.3C116.443 200.228 118.814 202.608 121.731 202.608H222.801C223.973 202.608 224.927 203.566 224.927 204.742V204.879C224.927 206.055 223.973 207.013 222.801 207.013H120.75C116.525 207.013 113.09 203.566 113.09 199.325V182.964C113.09 178.696 116.525 175.248 120.75 175.248Z" fill="#6D68E0"/>
<path d="M208.981 195.33H163.68V195.659H208.981V195.33Z" fill="#373133"/>
<path d="M194.262 195.33H189.492V202.663H194.262V195.33Z" fill="#AFAFD5"/>
<path d="M192.763 201.732V220.83L198.433 215.166L204.211 220.83V202.663L192.763 201.732Z" fill="#156468"/>
<path d="M189.492 195.33H200.75C200.75 195.33 200.75 200.83 204.211 202.663H192.954C192.954 202.663 189.492 201.732 189.492 195.33Z" fill="#197A83"/>
<path d="M205.138 14.2355L202.276 25.8635C202.276 25.8635 213.097 35.9319 232.831 32.8949L234.93 21.2944L205.138 14.2355Z" fill="#373133"/>
<path d="M218.167 24.003L193.254 11.4175L193.908 9.99475L246.869 22.5529L246.651 24.003H218.167Z" fill="#564F51"/>
<path d="M193.935 10.022L221.847 11.4721L246.842 22.5255H218.63L193.935 10.022Z" fill="#373133"/>
<path d="M233.785 37.2999H232.559V22.8812L221.056 15.6856L221.71 14.6459L233.785 22.1973V37.2999Z" fill="#F1884F"/>
<path d="M218.603 13.8799C218.603 13.8799 218.385 13.962 218.194 14.1535C217.813 14.4818 217.84 15.0837 218.249 15.3847C218.794 15.7677 219.802 16.2876 221.547 16.3149C222.037 16.3149 222.419 15.8772 222.337 15.412C222.31 15.2479 222.256 15.0837 222.174 14.9469L218.603 13.8799Z" fill="#F1884F"/>
<path d="M222.175 15.1817C222.282 14.7724 221.519 14.2171 220.47 13.9413C219.422 13.6655 218.485 13.7737 218.378 14.1829C218.272 14.5922 219.035 15.1476 220.083 15.4234C221.132 15.6992 222.068 15.5909 222.175 15.1817Z" fill="#564F51"/>
<path d="M233.186 37.0536C233.649 37.0536 234.058 37.4367 234.058 37.9292L234.085 39.2698L234.712 44.2219H231.714L232.341 39.2698L232.368 37.9292C232.341 37.4367 232.722 37.0536 233.186 37.0536Z" fill="#F1884F"/>
<path d="M50.8074 118.613C58.4849 118.613 64.7086 112.366 64.7086 104.66C64.7086 96.9535 58.4849 90.7063 50.8074 90.7063C43.13 90.7063 36.9062 96.9535 36.9062 104.66C36.9062 112.366 43.13 118.613 50.8074 118.613Z" fill="#DBDCF1"/>
<path d="M45.6286 97.3V112.02L58.3578 104.715L45.6286 97.3Z" fill="#EE504F"/>
<path d="M116.443 22.1973C116.443 14.5639 110.256 8.38057 102.651 8.40793C95.0733 8.43529 88.8585 14.7554 88.9403 22.3614C88.9676 26.4381 90.7666 30.0769 93.6013 32.594C94.0374 32.9771 94.4191 33.3601 94.7735 33.7979C95.891 35.1932 97.2811 37.6282 97.2811 41.1576H101.288H104.068H108.075C108.075 37.4367 109.629 34.9196 110.773 33.579C111.073 33.2507 111.373 32.9223 111.727 32.6214C114.617 30.0769 116.443 26.356 116.443 22.1973Z" fill="#F1884F"/>
<path d="M109.301 26.9305C108.838 26.1644 107.775 25.0427 105.676 26.1644C105.513 26.055 105.186 25.9182 104.777 25.8088C104.014 25.6172 103.278 25.7267 102.569 26.0824C102.378 26.0003 102.133 25.8908 101.806 25.8088C101.015 25.6172 100.252 25.7267 99.5434 26.1097C97.5264 25.07 96.4905 26.1644 96.0271 26.9305C95.7 27.4777 95.7001 28.5447 95.9727 30.159C96.1907 31.3902 96.5996 32.9497 97.1993 34.7828C98.1805 37.9018 99.3253 40.7746 99.3526 40.802L99.8704 40.5831C99.8704 40.5557 98.7257 37.6829 97.7444 34.5913C96.0545 29.2287 96.2453 27.6692 96.5178 27.2041C97.0902 26.2465 97.9352 26.0003 99.0527 26.4928C98.9437 26.6022 98.8619 26.739 98.7801 26.9305C98.6166 27.3136 98.5076 27.806 98.5076 28.3259C98.5076 28.8457 98.5893 29.3655 98.7801 29.7212C98.9709 30.159 99.2708 30.4326 99.6251 30.4326C99.9795 30.4326 100.252 30.1863 100.47 29.7212C100.634 29.3382 100.743 28.8457 100.743 28.3259C100.743 27.806 100.661 27.2862 100.47 26.9305C100.388 26.739 100.279 26.5748 100.17 26.4654C100.988 26.1371 101.697 26.3286 102.133 26.4928C102.024 26.6022 101.942 26.739 101.86 26.9305C101.697 27.3136 101.588 27.806 101.588 28.3259C101.588 28.8457 101.669 29.3655 101.86 29.7212C102.051 30.159 102.351 30.4326 102.705 30.4326C103.032 30.4326 103.332 30.1863 103.55 29.7212C103.714 29.3382 103.823 28.8457 103.823 28.3259C103.823 27.806 103.741 27.2862 103.55 26.9305C103.468 26.7116 103.332 26.5475 103.223 26.438C104.014 26.1644 104.722 26.3286 105.158 26.5201C105.049 26.6296 104.967 26.7664 104.886 26.9305C104.722 27.3136 104.613 27.806 104.613 28.3259C104.613 28.8457 104.695 29.3655 104.886 29.7212C105.077 30.159 105.376 30.4326 105.731 30.4326C106.085 30.4326 106.358 30.1863 106.576 29.7212C106.739 29.3382 106.848 28.8457 106.848 28.3259C106.848 27.806 106.767 27.2862 106.576 26.9305C106.494 26.7664 106.412 26.6296 106.33 26.5201C107.475 26.0003 108.32 26.2465 108.893 27.2315C109.165 27.6966 109.356 29.2561 107.666 34.6186C106.685 37.7103 105.54 40.5831 105.54 40.6104L106.058 40.8293C106.058 40.802 107.23 37.9018 108.211 34.8101C108.784 32.977 109.192 31.4175 109.41 30.1863C109.656 28.5447 109.629 27.4777 109.301 26.9305ZM99.6524 29.8854C99.4616 29.8854 99.1073 29.3382 99.1073 28.3259C99.1073 27.3136 99.4616 26.7664 99.6524 26.7664C99.8432 26.7664 100.198 27.3136 100.198 28.3259C100.198 29.3382 99.8432 29.8854 99.6524 29.8854ZM103.25 28.3259C103.25 29.3382 102.896 29.8854 102.705 29.8854C102.514 29.8854 102.16 29.3382 102.16 28.3259C102.16 27.3136 102.514 26.7664 102.705 26.7664C102.896 26.7664 103.25 27.3136 103.25 28.3259ZM105.676 29.8854C105.485 29.8854 105.131 29.3382 105.131 28.3259C105.131 27.3136 105.485 26.7664 105.676 26.7664C105.867 26.7664 106.221 27.3136 106.221 28.3259C106.221 29.3382 105.867 29.8854 105.676 29.8854Z" fill="white"/>
<path d="M100.279 45.7267V46.5749C100.279 47.9429 101.37 49.0373 102.733 49.0373C104.095 49.0373 105.186 47.9429 105.186 46.5749V45.7267H100.279Z" fill="#373133"/>
<path d="M108.32 40.4189H97.1448V45.8088H108.32V40.4189Z" fill="#AFAFD5"/>
<path d="M97.8808 47.2589H107.53C108.211 47.2589 108.784 46.6843 108.784 46.0003C108.784 45.3163 108.211 44.7418 107.53 44.7418H97.8808C97.1994 44.7418 96.6269 45.3163 96.6269 46.0003C96.6269 46.6843 97.1994 47.2589 97.8808 47.2589Z" fill="#DBDCF1"/>
<path d="M97.2266 41.0482H108.184C108.865 41.0482 109.438 40.4736 109.438 39.7896C109.438 39.1056 108.865 38.5311 108.184 38.5311H97.2266C96.5452 38.5311 95.9728 39.1056 95.9728 39.7896C96 40.501 96.5452 41.0482 97.2266 41.0482Z" fill="#DBDCF1"/>
<path d="M97.2266 44.1672H108.184C108.865 44.1672 109.438 43.5927 109.438 42.9087C109.438 42.2247 108.865 41.6501 108.184 41.6501H97.2266C96.5452 41.6501 95.9728 42.2247 95.9728 42.9087C96 43.5927 96.5452 44.1672 97.2266 44.1672Z" fill="#DBDCF1"/>
<path d="M74.7938 64.3314L73.8944 59.817L69.2061 61.6228L68.4429 56.6159L63.9182 58.449L63.3185 53.4969L59.4208 55.4121L59.0665 54.6733L63.9999 52.2657L64.5996 57.2999L69.0971 55.4668L69.8602 60.501L74.494 58.6952L75.5842 64.1672L74.7938 64.3314Z" fill="#EE504F"/>
<path d="M247.796 71.7733L243.08 69.6939L243.407 68.9552L247.25 70.6242L248.341 66.1645L252.484 68.2165L253.52 63.8389L258.044 66.274L257.663 66.9853L254.065 65.0701L253.056 69.4203L248.886 67.341L247.796 71.7733Z" fill="#197A83"/>
<path d="M156.702 10.1589L155.993 9.74853L158.065 6.1644L153.731 4.76904L156.129 0.199951L156.865 0.582989L154.93 4.27657L159.291 5.69928L156.702 10.1589Z" fill="#6D68E0"/>
<path d="M249.976 101.787L251.066 98.285L253.547 99.1058L254.474 97.3821L262.733 100.036L262.678 101.869L276.225 106.219L275.053 109.858L249.976 101.787Z" fill="#F1884F"/>
<path d="M249.131 100.145L246.269 115.85L269.901 123.456L276.688 109.037L249.131 100.145Z" fill="#FFB392"/>
<path d="M197.806 86.3287C195.843 77.5188 189.193 74.2083 184.722 72.6214C178.426 70.3779 175.564 65.1795 175.564 65.1795C173.956 62.1152 172.729 60.0359 171.612 58.5585C175.673 58.066 177.254 55.3026 177.254 55.3026C175.836 56.2876 174.31 56.7527 172.947 56.9442C174.991 56.2055 176.436 54.263 176.436 51.9647C176.436 49.0372 174.065 46.6843 171.175 46.6843C168.259 46.6843 165.915 49.0646 165.915 51.9647C165.915 52.8403 166.133 53.6337 166.487 54.3724C159.1 50.7336 151.986 54.1262 149.233 57.5461C142.746 65.6173 152.15 76.1508 152.15 76.1508L151.959 81.0482C142.201 92.0195 150.215 101.212 150.215 101.212C161.445 108.682 178.153 106.301 186.63 104.386C190.801 103.456 194.344 100.665 196.225 96.8349C197.615 93.9074 198.678 90.2138 197.806 86.3287Z" fill="#373133"/>
<path d="M159.264 83.9758V83.8663C159.264 83.8663 148.525 90.5148 149.888 67.2042C149.888 67.2042 150.76 62.4162 154.085 60.8293C154.085 60.8293 158.773 68.7363 167.932 70.1317C167.932 70.1317 170.658 66.0277 172.811 69.3383C172.811 69.3383 174.365 72.6762 171.448 75.2206L174.773 96.8896L158.474 96.9991L159.046 87.3137L159.264 83.9758Z" fill="#FCBB9D"/>
<path d="M134.542 242.882H122.249L120.477 236.261L119.032 230.816H131.625L132.525 234.482L134.542 242.882Z" fill="#FCBB9D"/>
<path d="M159.945 229.257L158.882 239.845L158.037 248.381L147.244 249.038L147.053 240.939L146.78 229.257H159.945Z" fill="#FCBB9D"/>
<path d="M132.525 234.482L120.477 236.261L119.032 230.816H131.625L132.525 234.482Z" fill="#E6A68A"/>
<path d="M159.945 229.257L158.882 239.845L147.053 240.939L146.78 229.257H159.945Z" fill="#E6A68A"/>
<path d="M158.773 88.6543L145.881 93.798C142.828 95.4669 140.484 98.2029 139.284 101.486L129.935 126.985H144.218L141.192 156.206L187.557 161.295L186.957 121.842H200.831L196.634 103.292C195.625 98.8048 192.518 95.0839 188.32 93.2508L173.928 87.0401C173.928 87.0127 162.181 99.735 158.773 88.6543Z" fill="#5CC2AD"/>
<path d="M147.434 177.683L122.249 174.756L133.86 231.965H114.835L93.5741 163.593C93.5741 163.593 91.7752 159.981 94.6099 155.576C96.8178 152.102 100.716 150.077 104.831 150.077H155.339L147.434 177.683Z" fill="#311547"/>
<path d="M187.721 159.462C187.721 159.462 185.486 146.685 149.015 149.174C149.015 149.174 141.983 148.873 141.983 169.147V235.878H161.881L165.969 177.656C165.997 177.683 186.848 180.036 187.721 159.462Z" fill="#4F216C"/>
<path d="M133.642 237.246C133.642 237.246 128.327 242.307 121.404 240.255C121.404 240.255 109.411 250.05 107.23 252.567C105.813 254.181 107.257 256.671 109.356 256.261L136.314 250.159C137.84 249.858 138.685 248.217 138.031 246.822L133.642 237.246Z" fill="#311547"/>
<path d="M141.765 186.165C139.857 154.017 146.78 149.749 147.08 149.557L147.489 150.269L147.298 149.913L147.516 150.269C147.462 150.296 140.756 154.701 142.61 186.11L141.765 186.165Z" fill="white"/>
<path d="M158.392 245.016C158.392 245.016 160.791 246.165 161.281 254.893C161.336 255.741 160.654 256.452 159.809 256.452H139.148C137.186 256.452 136.259 254.044 137.704 252.704C140.784 249.886 143.428 248.463 147.244 245.371C147.244 245.399 153.84 249.749 158.392 245.016Z" fill="#4F216C"/>
<path d="M198.242 142.006L163.707 145.836L160.627 146.247L141.274 148.819C140.238 148.955 139.639 147.669 140.402 146.958L148.116 139.845C148.906 138.723 150.187 138.039 151.577 138.039H155.693L157.71 137.492L186.494 129.804L185.703 126.055L185.513 125.098L184.586 120.665L200.586 120.72L200.995 122.581L201.077 122.936L203.557 134.646C204.266 138.203 201.813 141.596 198.242 142.006Z" fill="#FCBB9D"/>
<path d="M200.968 122.608L185.486 125.098L184.559 120.665L200.559 120.72L200.968 122.608Z" fill="#E6A68A"/>
<path d="M160.627 146.247L141.274 148.819C140.238 148.955 139.639 147.669 140.402 146.958L148.116 139.845C148.906 138.723 150.187 138.039 151.577 138.039H155.693L157.71 137.492L160.627 146.247Z" fill="#E6A68A"/>
<path d="M127.564 135.85C129.069 135.85 130.29 134.625 130.29 133.114C130.29 131.603 129.069 130.378 127.564 130.378C126.058 130.378 124.838 131.603 124.838 133.114C124.838 134.625 126.058 135.85 127.564 135.85Z" fill="white"/>
<path d="M153.486 117.382L157.22 150.187H112.463L108.729 117.382H153.486Z" fill="#AFAFD5"/>
<path d="M178.535 147.779H152.014V150.187H178.535V147.779Z" fill="#AFAFD5"/>
<path d="M151.332 117.382L155.094 150.187H110.337L106.576 117.382H151.332Z" fill="#DBDCF1"/>
<path d="M128.191 135.768C129.696 135.768 130.916 134.543 130.916 133.032C130.916 131.521 129.696 130.296 128.191 130.296C126.685 130.296 125.465 131.521 125.465 133.032C125.465 134.543 126.685 135.768 128.191 135.768Z" fill="white"/>
<path d="M182.475 111.135L181.683 111.34L184.463 122.176L185.255 121.971L182.475 111.135Z" fill="#373133"/>
<path d="M165.997 79.4888C165.997 79.4888 165.179 85.4532 159.073 87.3137L159.264 84.0031C159.291 84.0031 159.291 83.9758 159.319 83.9758C161.199 83.1003 163.244 81.7049 165.997 79.4888Z" fill="#E6A68A"/>
<path d="M320 286.603H0V287.971H320V286.603Z" fill="#373133"/>
</svg>
